<?xml version="1.0" encoding="UTF-8" standalone="no"?>
<!DOCTYPE svg PUBLIC "-//W3C//DTD SVG 1.1//EN"
 "http://www.w3.org/Graphics/SVG/1.1/DTD/svg11.dtd">
<!-- Generated by graphviz version 3.0.0 (20220226.1711)
 -->
<!-- Title: dependency&#45;cruiser output Pages: 1 -->
<svg width="569pt" height="324pt"
 viewBox="0.00 0.00 569.00 324.00" xmlns="http://www.w3.org/2000/svg" xmlns:xlink="http://www.w3.org/1999/xlink">
<g id="graph0" class="graph" transform="scale(1 1) rotate(0) translate(4 320)">
<title>dependency&#45;cruiser output</title>
<polygon fill="white" stroke="transparent" points="-4,4 -4,-320 565,-320 565,4 -4,4"/>
<g id="clust1" class="cluster">
<title>cluster_src</title>
<path fill="#ffffff" stroke="black" stroke-width="2" d="M20,-8C20,-8 541,-8 541,-8 547,-8 553,-14 553,-20 553,-20 553,-296 553,-296 553,-302 547,-308 541,-308 541,-308 20,-308 20,-308 14,-308 8,-302 8,-296 8,-296 8,-20 8,-20 8,-14 14,-8 20,-8"/>
<text text-anchor="middle" x="280.5" y="-296.8" font-family="Helvetica,sans-Serif" font-weight="bold" font-size="9.00">src</text>
</g>
<g id="clust2" class="cluster">
<title>cluster_src/components</title>
<path fill="#ffffff" stroke="black" stroke-width="2" d="M157,-16C157,-16 533,-16 533,-16 539,-16 545,-22 545,-28 545,-28 545,-270 545,-270 545,-276 539,-282 533,-282 533,-282 157,-282 157,-282 151,-282 145,-276 145,-270 145,-270 145,-28 145,-28 145,-22 151,-16 157,-16"/>
<text text-anchor="middle" x="345" y="-270.8" font-family="Helvetica,sans-Serif" font-weight="bold" font-size="9.00">components</text>
</g>
<g id="clust3" class="cluster">
<title>cluster_src/components/Chart</title>
<path fill="#ffffff" stroke="black" stroke-width="2" d="M372.5,-24C372.5,-24 515.5,-24 515.5,-24 521.5,-24 527.5,-30 527.5,-36 527.5,-36 527.5,-64 527.5,-64 527.5,-70 521.5,-76 515.5,-76 515.5,-76 372.5,-76 372.5,-76 366.5,-76 360.5,-70 360.5,-64 360.5,-64 360.5,-36 360.5,-36 360.5,-30 366.5,-24 372.5,-24"/>
<text text-anchor="middle" x="444" y="-64.8" font-family="Helvetica,sans-Serif" font-weight="bold" font-size="9.00">Chart</text>
</g>
<g id="clust4" class="cluster">
<title>cluster_src/components/Expenses</title>
<path fill="#ffffff" stroke="black" stroke-width="2" d="M172,-84C172,-84 525,-84 525,-84 531,-84 537,-90 537,-96 537,-96 537,-184 537,-184 537,-190 531,-196 525,-196 525,-196 172,-196 172,-196 166,-196 160,-190 160,-184 160,-184 160,-96 160,-96 160,-90 166,-84 172,-84"/>
<text text-anchor="middle" x="348.5" y="-184.8" font-family="Helvetica,sans-Serif" font-weight="bold" font-size="9.00">Expenses</text>
</g>
<g id="clust5" class="cluster">
<title>cluster_src/components/NewExpense</title>
<path fill="#ffffff" stroke="black" stroke-width="2" d="M165,-24C165,-24 336,-24 336,-24 342,-24 348,-30 348,-36 348,-36 348,-64 348,-64 348,-70 342,-76 336,-76 336,-76 165,-76 165,-76 159,-76 153,-70 153,-64 153,-64 153,-36 153,-36 153,-30 159,-24 165,-24"/>
<text text-anchor="middle" x="250.5" y="-64.8" font-family="Helvetica,sans-Serif" font-weight="bold" font-size="9.00">NewExpense</text>
</g>
<g id="clust6" class="cluster">
<title>cluster_src/components/UI</title>
<path fill="#ffffff" stroke="black" stroke-width="2" d="M465.5,-204C465.5,-204 511.5,-204 511.5,-204 517.5,-204 523.5,-210 523.5,-216 523.5,-216 523.5,-244 523.5,-244 523.5,-250 517.5,-256 511.5,-256 511.5,-256 465.5,-256 465.5,-256 459.5,-256 453.5,-250 453.5,-244 453.5,-244 453.5,-216 453.5,-216 453.5,-210 459.5,-204 465.5,-204"/>
<text text-anchor="middle" x="488.5" y="-244.8" font-family="Helvetica,sans-Serif" font-weight="bold" font-size="9.00">UI</text>
</g>
<!-- src/App.js -->
<g id="node1" class="node">
<title>src/App.js</title>
<g id="a_node1"><a xlink:href="src/App.js" xlink:title="App.js">
<path fill="#ffffcc" stroke="black" d="M131,-95C131,-95 89,-95 89,-95 86,-95 83,-92 83,-89 83,-89 83,-83 83,-83 83,-80 86,-77 89,-77 89,-77 131,-77 131,-77 134,-77 137,-80 137,-83 137,-83 137,-89 137,-89 137,-92 134,-95 131,-95"/>
<text text-anchor="start" x="97" y="-83.8" font-family="Helvetica,sans-Serif" font-size="9.00">App.js</text>
</a>
</g>
</g>
<!-- src/components/Expenses/Expenses.js -->
<g id="node2" class="node">
<title>src/components/Expenses/Expenses.js</title>
<g id="a_node2"><a xlink:href="src/components/Expenses/Expenses.js" xlink:title="Expenses.js">
<path fill="#ffffcc" stroke="black" d="M228,-140C228,-140 174,-140 174,-140 171,-140 168,-137 168,-134 168,-134 168,-128 168,-128 168,-125 171,-122 174,-122 174,-122 228,-122 228,-122 231,-122 234,-125 234,-128 234,-128 234,-134 234,-134 234,-137 231,-140 228,-140"/>
<text text-anchor="start" x="176" y="-128.8" font-family="Helvetica,sans-Serif" font-size="9.00">Expenses.js</text>
</a>
</g>
</g>
<!-- src/App.js&#45;&gt;src/components/Expenses/Expenses.js -->
<g id="edge1" class="edge">
<title>src/App.js&#45;&gt;src/components/Expenses/Expenses.js</title>
<path fill="none" stroke="#000000" stroke-width="2" stroke-opacity="0.200000" d="M129.01,-95.11C142.64,-102 161.49,-111.53 176.34,-119.04"/>
<polygon fill="#000000" fill-opacity="0.200000" stroke="#000000" stroke-width="2" stroke-opacity="0.200000" points="175.71,-121.07 182.02,-121.91 177.61,-117.33 175.71,-121.07"/>
</g>
<!-- src/components/NewExpense/NewExpense.js -->
<g id="node3" class="node">
<title>src/components/NewExpense/NewExpense.js</title>
<g id="a_node3"><a xlink:href="src/components/NewExpense/NewExpense.js" xlink:title="NewExpense.js">
<path fill="#ffffcc" stroke="black" d="M235,-50C235,-50 167,-50 167,-50 164,-50 161,-47 161,-44 161,-44 161,-38 161,-38 161,-35 164,-32 167,-32 167,-32 235,-32 235,-32 238,-32 241,-35 241,-38 241,-38 241,-44 241,-44 241,-47 238,-50 235,-50"/>
<text text-anchor="start" x="169" y="-38.8" font-family="Helvetica,sans-Serif" font-size="9.00">NewExpense.js</text>
</a>
</g>
</g>
<!-- src/App.js&#45;&gt;src/components/NewExpense/NewExpense.js -->
<g id="edge2" class="edge">
<title>src/App.js&#45;&gt;src/components/NewExpense/NewExpense.js</title>
<path fill="none" stroke="#000000" stroke-width="2" stroke-opacity="0.200000" d="M129.01,-76.89C142.64,-70 161.49,-60.47 176.34,-52.96"/>
<polygon fill="#000000" fill-opacity="0.200000" stroke="#000000" stroke-width="2" stroke-opacity="0.200000" points="177.61,-54.67 182.02,-50.09 175.71,-50.93 177.61,-54.67"/>
</g>
<!-- src/components/UI/Card.js -->
<g id="node8" class="node">
<title>src/components/UI/Card.js</title>
<g id="a_node8"><a xlink:href="src/components/UI/Card.js" xlink:title="Card.js">
<path fill="#ffffcc" stroke="black" d="M509.5,-230C509.5,-230 467.5,-230 467.5,-230 464.5,-230 461.5,-227 461.5,-224 461.5,-224 461.5,-218 461.5,-218 461.5,-215 464.5,-212 467.5,-212 467.5,-212 509.5,-212 509.5,-212 512.5,-212 515.5,-215 515.5,-218 515.5,-218 515.5,-224 515.5,-224 515.5,-227 512.5,-230 509.5,-230"/>
<text text-anchor="start" x="473.5" y="-218.8" font-family="Helvetica,sans-Serif" font-size="9.00">Card.js</text>
</a>
</g>
</g>
<!-- src/components/Expenses/Expenses.js&#45;&gt;src/components/UI/Card.js -->
<g id="edge6" class="edge">
<title>src/components/Expenses/Expenses.js&#45;&gt;src/components/UI/Card.js</title>
<path fill="none" stroke="#000000" stroke-width="2" stroke-opacity="0.200000" d="M209.81,-140.19C219.2,-150.6 235.96,-167.24 254,-176 320.65,-208.35 408.59,-217.46 455.22,-220.01"/>
<polygon fill="#000000" fill-opacity="0.200000" stroke="#000000" stroke-width="2" stroke-opacity="0.200000" points="455.15,-222.11 461.25,-220.32 455.36,-217.92 455.15,-222.11"/>
</g>
<!-- src/components/Expenses/ExpensesChart.js -->
<g id="node9" class="node">
<title>src/components/Expenses/ExpensesChart.js</title>
<g id="a_node9"><a xlink:href="src/components/Expenses/ExpensesChart.js" xlink:title="ExpensesChart.js">
<path fill="#ffffcc" stroke="black" d="M337,-110C337,-110 260,-110 260,-110 257,-110 254,-107 254,-104 254,-104 254,-98 254,-98 254,-95 257,-92 260,-92 260,-92 337,-92 337,-92 340,-92 343,-95 343,-98 343,-98 343,-104 343,-104 343,-107 340,-110 337,-110"/>
<text text-anchor="start" x="262" y="-98.8" font-family="Helvetica,sans-Serif" font-size="9.00">ExpensesChart.js</text>
</a>
</g>
</g>
<!-- src/components/Expenses/Expenses.js&#45;&gt;src/components/Expenses/ExpensesChart.js -->
<g id="edge7" class="edge">
<title>src/components/Expenses/Expenses.js&#45;&gt;src/components/Expenses/ExpensesChart.js</title>
<path fill="none" stroke="#000000" stroke-width="2" stroke-opacity="0.200000" d="M230.65,-122C240.76,-118.82 252.23,-115.22 262.78,-111.91"/>
<polygon fill="#000000" fill-opacity="0.200000" stroke="#000000" stroke-width="2" stroke-opacity="0.200000" points="263.44,-113.9 268.54,-110.1 262.18,-109.89 263.44,-113.9"/>
</g>
<!-- src/components/Expenses/ExpensesFilter.js -->
<g id="node10" class="node">
<title>src/components/Expenses/ExpensesFilter.js</title>
<g id="a_node10"><a xlink:href="src/components/Expenses/ExpensesFilter.js" xlink:title="ExpensesFilter.js">
<path fill="#ffffcc" stroke="black" d="M335.5,-140C335.5,-140 261.5,-140 261.5,-140 258.5,-140 255.5,-137 255.5,-134 255.5,-134 255.5,-128 255.5,-128 255.5,-125 258.5,-122 261.5,-122 261.5,-122 335.5,-122 335.5,-122 338.5,-122 341.5,-125 341.5,-128 341.5,-128 341.5,-134 341.5,-134 341.5,-137 338.5,-140 335.5,-140"/>
<text text-anchor="start" x="263.5" y="-128.8" font-family="Helvetica,sans-Serif" font-size="9.00">ExpensesFilter.js</text>
</a>
</g>
</g>
<!-- src/components/Expenses/Expenses.js&#45;&gt;src/components/Expenses/ExpensesFilter.js -->
<g id="edge8" class="edge">
<title>src/components/Expenses/Expenses.js&#45;&gt;src/components/Expenses/ExpensesFilter.js</title>
<path fill="none" stroke="#000000" stroke-width="2" stroke-opacity="0.200000" d="M234.07,-131C238.97,-131 244.13,-131 249.29,-131"/>
<polygon fill="#000000" fill-opacity="0.200000" stroke="#000000" stroke-width="2" stroke-opacity="0.200000" points="249.34,-133.1 255.34,-131 249.34,-128.9 249.34,-133.1"/>
</g>
<!-- src/components/Expenses/ExpensesList.js -->
<g id="node11" class="node">
<title>src/components/Expenses/ExpensesList.js</title>
<g id="a_node11"><a xlink:href="src/components/Expenses/ExpensesList.js" xlink:title="ExpensesList.js">
<path fill="#ffffcc" stroke="black" d="M332.5,-170C332.5,-170 264.5,-170 264.5,-170 261.5,-170 258.5,-167 258.5,-164 258.5,-164 258.5,-158 258.5,-158 258.5,-155 261.5,-152 264.5,-152 264.5,-152 332.5,-152 332.5,-152 335.5,-152 338.5,-155 338.5,-158 338.5,-158 338.5,-164 338.5,-164 338.5,-167 335.5,-170 332.5,-170"/>
<text text-anchor="start" x="266.5" y="-158.8" font-family="Helvetica,sans-Serif" font-size="9.00">ExpensesList.js</text>
</a>
</g>
</g>
<!-- src/components/Expenses/Expenses.js&#45;&gt;src/components/Expenses/ExpensesList.js -->
<g id="edge9" class="edge">
<title>src/components/Expenses/Expenses.js&#45;&gt;src/components/Expenses/ExpensesList.js</title>
<path fill="none" stroke="#000000" stroke-width="2" stroke-opacity="0.200000" d="M230.65,-140C240.76,-143.18 252.23,-146.78 262.78,-150.09"/>
<polygon fill="#000000" fill-opacity="0.200000" stroke="#000000" stroke-width="2" stroke-opacity="0.200000" points="262.18,-152.11 268.54,-151.9 263.44,-148.1 262.18,-152.11"/>
</g>
<!-- src/components/NewExpense/ExpenseForm.js -->
<g id="node12" class="node">
<title>src/components/NewExpense/ExpenseForm.js</title>
<g id="a_node12"><a xlink:href="src/components/NewExpense/ExpenseForm.js" xlink:title="ExpenseForm.js">
<path fill="#ffffcc" stroke="black" d="M334,-50C334,-50 263,-50 263,-50 260,-50 257,-47 257,-44 257,-44 257,-38 257,-38 257,-35 260,-32 263,-32 263,-32 334,-32 334,-32 337,-32 340,-35 340,-38 340,-38 340,-44 340,-44 340,-47 337,-50 334,-50"/>
<text text-anchor="start" x="265" y="-38.8" font-family="Helvetica,sans-Serif" font-size="9.00">ExpenseForm.js</text>
</a>
</g>
</g>
<!-- src/components/NewExpense/NewExpense.js&#45;&gt;src/components/NewExpense/ExpenseForm.js -->
<g id="edge12" class="edge">
<title>src/components/NewExpense/NewExpense.js&#45;&gt;src/components/NewExpense/ExpenseForm.js</title>
<path fill="none" stroke="#000000" stroke-width="2" stroke-opacity="0.200000" d="M241.12,-41C244.18,-41 247.28,-41 250.39,-41"/>
<polygon fill="#000000" fill-opacity="0.200000" stroke="#000000" stroke-width="2" stroke-opacity="0.200000" points="250.74,-43.1 256.74,-41 250.74,-38.9 250.74,-43.1"/>
</g>
<!-- src/components/Chart/Chart.js -->
<g id="node4" class="node">
<title>src/components/Chart/Chart.js</title>
<g id="a_node4"><a xlink:href="src/components/Chart/Chart.js" xlink:title="Chart.js">
<path fill="#ffffcc" stroke="black" d="M416.5,-50C416.5,-50 374.5,-50 374.5,-50 371.5,-50 368.5,-47 368.5,-44 368.5,-44 368.5,-38 368.5,-38 368.5,-35 371.5,-32 374.5,-32 374.5,-32 416.5,-32 416.5,-32 419.5,-32 422.5,-35 422.5,-38 422.5,-38 422.5,-44 422.5,-44 422.5,-47 419.5,-50 416.5,-50"/>
<text text-anchor="start" x="379.5" y="-38.8" font-family="Helvetica,sans-Serif" font-size="9.00">Chart.js</text>
</a>
</g>
</g>
<!-- src/components/Chart/ChartBar.js -->
<g id="node5" class="node">
<title>src/components/Chart/ChartBar.js</title>
<g id="a_node5"><a xlink:href="src/components/Chart/ChartBar.js" xlink:title="ChartBar.js">
<path fill="#ffffcc" stroke="black" d="M513.5,-50C513.5,-50 463.5,-50 463.5,-50 460.5,-50 457.5,-47 457.5,-44 457.5,-44 457.5,-38 457.5,-38 457.5,-35 460.5,-32 463.5,-32 463.5,-32 513.5,-32 513.5,-32 516.5,-32 519.5,-35 519.5,-38 519.5,-38 519.5,-44 519.5,-44 519.5,-47 516.5,-50 513.5,-50"/>
<text text-anchor="start" x="465.5" y="-38.8" font-family="Helvetica,sans-Serif" font-size="9.00">ChartBar.js</text>
</a>
</g>
</g>
<!-- src/components/Chart/Chart.js&#45;&gt;src/components/Chart/ChartBar.js -->
<g id="edge3" class="edge">
<title>src/components/Chart/Chart.js&#45;&gt;src/components/Chart/ChartBar.js</title>
<path fill="none" stroke="#000000" stroke-width="2" stroke-opacity="0.200000" d="M422.82,-41C431.69,-41 441.75,-41 451.25,-41"/>
<polygon fill="#000000" fill-opacity="0.200000" stroke="#000000" stroke-width="2" stroke-opacity="0.200000" points="451.39,-43.1 457.39,-41 451.39,-38.9 451.39,-43.1"/>
</g>
<!-- src/components/Expenses/ExpenseDate.js -->
<g id="node6" class="node">
<title>src/components/Expenses/ExpenseDate.js</title>
<g id="a_node6"><a xlink:href="src/components/Expenses/ExpenseDate.js" xlink:title="ExpenseDate.js">
<path fill="#ffffcc" stroke="black" d="M523,-170C523,-170 454,-170 454,-170 451,-170 448,-167 448,-164 448,-164 448,-158 448,-158 448,-155 451,-152 454,-152 454,-152 523,-152 523,-152 526,-152 529,-155 529,-158 529,-158 529,-164 529,-164 529,-167 526,-170 523,-170"/>
<text text-anchor="start" x="456" y="-158.8" font-family="Helvetica,sans-Serif" font-size="9.00">ExpenseDate.js</text>
</a>
</g>
</g>
<!-- src/components/Expenses/ExpenseItem.js -->
<g id="node7" class="node">
<title>src/components/Expenses/ExpenseItem.js</title>
<g id="a_node7"><a xlink:href="src/components/Expenses/ExpenseItem.js" xlink:title="ExpenseItem.js">
<path fill="#ffffcc" stroke="black" d="M429,-170C429,-170 362,-170 362,-170 359,-170 356,-167 356,-164 356,-164 356,-158 356,-158 356,-155 359,-152 362,-152 362,-152 429,-152 429,-152 432,-152 435,-155 435,-158 435,-158 435,-164 435,-164 435,-167 432,-170 429,-170"/>
<text text-anchor="start" x="364" y="-158.8" font-family="Helvetica,sans-Serif" font-size="9.00">ExpenseItem.js</text>
</a>
</g>
</g>
<!-- src/components/Expenses/ExpenseItem.js&#45;&gt;src/components/Expenses/ExpenseDate.js -->
<g id="edge5" class="edge">
<title>src/components/Expenses/ExpenseItem.js&#45;&gt;src/components/Expenses/ExpenseDate.js</title>
<path fill="none" stroke="#000000" stroke-width="2" stroke-opacity="0.200000" d="M435.09,-161C437.36,-161 439.64,-161 441.93,-161"/>
<polygon fill="#000000" fill-opacity="0.200000" stroke="#000000" stroke-width="2" stroke-opacity="0.200000" points="441.97,-163.1 447.97,-161 441.97,-158.9 441.97,-163.1"/>
</g>
<!-- src/components/Expenses/ExpenseItem.js&#45;&gt;src/components/UI/Card.js -->
<g id="edge4" class="edge">
<title>src/components/Expenses/ExpenseItem.js&#45;&gt;src/components/UI/Card.js</title>
<path fill="none" stroke="#000000" stroke-width="2" stroke-opacity="0.200000" d="M408.06,-170.19C418.31,-178.18 433.8,-189.86 448,-199 453.25,-202.38 459.04,-205.78 464.54,-208.86"/>
<polygon fill="#000000" fill-opacity="0.200000" stroke="#000000" stroke-width="2" stroke-opacity="0.200000" points="463.65,-210.77 469.91,-211.83 465.68,-207.09 463.65,-210.77"/>
</g>
<!-- src/components/Expenses/ExpensesChart.js&#45;&gt;src/components/Chart/Chart.js -->
<g id="edge10" class="edge">
<title>src/components/Expenses/ExpensesChart.js&#45;&gt;src/components/Chart/Chart.js</title>
<path fill="none" stroke="#000000" stroke-width="2" stroke-opacity="0.200000" d="M322.83,-91.88C331.03,-88.3 340.14,-83.88 348,-79 359.51,-71.86 371.32,-62.17 380.15,-54.37"/>
<polygon fill="#000000" fill-opacity="0.200000" stroke="#000000" stroke-width="2" stroke-opacity="0.200000" points="381.67,-55.83 384.73,-50.26 378.87,-52.7 381.67,-55.83"/>
</g>
<!-- src/components/Expenses/ExpensesList.js&#45;&gt;src/components/Expenses/ExpenseItem.js -->
<g id="edge11" class="edge">
<title>src/components/Expenses/ExpensesList.js&#45;&gt;src/components/Expenses/ExpenseItem.js</title>
<path fill="none" stroke="#000000" stroke-width="2" stroke-opacity="0.200000" d="M338.69,-161C342.29,-161 345.96,-161 349.6,-161"/>
<polygon fill="#000000" fill-opacity="0.200000" stroke="#000000" stroke-width="2" stroke-opacity="0.200000" points="349.71,-163.1 355.71,-161 349.71,-158.9 349.71,-163.1"/>
</g>
<!-- src/index.js -->
<g id="node13" class="node">
<title>src/index.js</title>
<g id="a_node13"><a xlink:href="src/index.js" xlink:title="index.js">
<path fill="#ffffcc" stroke="black" d="M64,-95C64,-95 22,-95 22,-95 19,-95 16,-92 16,-89 16,-89 16,-83 16,-83 16,-80 19,-77 22,-77 22,-77 64,-77 64,-77 67,-77 70,-80 70,-83 70,-83 70,-89 70,-89 70,-92 67,-95 64,-95"/>
<text text-anchor="start" x="27" y="-83.8" font-family="Helvetica,sans-Serif" font-size="9.00">index.js</text>
</a>
</g>
</g>
<!-- src/index.js&#45;&gt;src/App.js -->
<g id="edge13" class="edge">
<title>src/index.js&#45;&gt;src/App.js</title>
<path fill="none" stroke="#000000" stroke-width="2" stroke-opacity="0.200000" d="M70.06,-86C72.32,-86 74.61,-86 76.9,-86"/>
<polygon fill="#000000" fill-opacity="0.200000" stroke="#000000" stroke-width="2" stroke-opacity="0.200000" points="76.93,-88.1 82.93,-86 76.93,-83.9 76.93,-88.1"/>
</g>
</g>
</svg>
